<svg xmlns="http://www.w3.org/2000/svg" viewBox="0 0 32 32" fill="none">
  <rect width="32" height="32" rx="8" fill="#2563EB"/>
  <path d="M8 12.5C8 10.567 9.567 9 11.5 9H16.5C18.433 9 20 10.567 20 12.5V13H22.5C23.328 13 24 13.672 24 14.5V22.5C24 23.328 23.328 24 22.5 24H17.5C16.672 24 16 23.328 16 22.5V22H11.5C9.567 22 8 20.433 8 18.5V12.5Z" fill="white" fill-opacity="0.3"/>
  <path d="M9 11.5C9 10.672 9.672 10 10.5 10H15.5C16.328 10 17 10.672 17 11.5V19.5C17 20.328 16.328 21 15.5 21H10.5C9.672 21 9 20.328 9 19.5V11.5Z" fill="white"/>
  <path d="M19 14h3.5c.828 0 1.5.672 1.5 1.5v6c0 .828-.672 1.5-1.5 1.5H19c-.828 0-1.5-.672-1.5-1.5v-6c0-.828.672-1.5 1.5-1.5z" fill="white" fill-opacity="0.85"/>
  <rect x="11" y="13" width="4" height="1.5" rx="0.75" fill="#2563EB" fill-opacity="0.6"/>
  <rect x="11" y="16" width="3" height="1.5" rx="0.75" fill="#2563EB" fill-opacity="0.4"/>
</svg>
